<?xml version="1.0" encoding="UTF-8"?>
<svg version="1.1" xmlns="http://www.w3.org/2000/svg" width="100" height="100">
<path d="M0 0 C1.61995125 -0.0099852 1.61995125 -0.0099852 3.27262878 -0.02017212 C5.55291039 -0.03027602 7.83322143 -0.03498984 10.11352539 -0.03466797 C13.58334658 -0.03903466 17.05188849 -0.07536217 20.52148438 -0.11328125 C22.74348526 -0.11915132 24.96549215 -0.12311944 27.1875 -0.125 C28.21591507 -0.13937103 29.24433014 -0.15374207 30.3039093 -0.16854858 C37.90869791 -0.12084763 44.13058286 1.32533215 50.09765625 6.23046875 C50.87496094 7.17986328 50.87496094 7.17986328 51.66796875 8.1484375 C52.20164062 8.77363281 52.7353125 9.39882812 53.28515625 10.04296875 C57.7797268 16.8779763 58.26014296 22.57701119 58.26171875 30.60546875 C58.27313904 32.21974007 58.27313904 32.21974007 58.28479004 33.86662292 C58.295563 36.13672576 58.2984556 38.40687804 58.29394531 40.67700195 C58.29297469 44.12731795 58.33459665 47.57539612 58.37890625 51.02539062 C58.38411528 53.23957874 58.38680141 55.45377451 58.38671875 57.66796875 C58.40311401 58.68808548 58.41950928 59.70820221 58.43640137 60.75923157 C58.36145301 68.63379779 56.45742739 75.33369303 51.03747559 81.25325012 C43.96594735 87.89110291 36.87213 88.80285258 27.5234375 88.8046875 C26.44725662 88.81230103 25.37107574 88.81991455 24.26228333 88.82775879 C21.99218049 88.83853175 19.72202821 88.84142435 17.4519043 88.83691406 C14.0015883 88.83594344 10.55351013 88.8775654 7.10351562 88.921875 C4.88932751 88.92708403 2.67513174 88.92977016 0.4609375 88.9296875 C-0.55917923 88.94608276 -1.57929596 88.96247803 -2.63032532 88.97937012 C-10.86233724 88.90101967 -17.28132987 86.60106412 -23.64453125 81.30859375 C-24.16015625 80.67824219 -24.67578125 80.04789062 -25.20703125 79.3984375 C-25.74328125 78.77066406 -26.27953125 78.14289063 -26.83203125 77.49609375 C-30.72026644 71.3875879 -30.52791414 65.12633803 -30.54296875 58.12890625 C-30.54962555 57.04893875 -30.55628235 55.96897125 -30.56314087 54.85627747 C-30.57324477 52.57599586 -30.57795859 50.29568482 -30.57763672 48.01538086 C-30.58200341 44.54555967 -30.61833092 41.07701776 -30.65625 37.60742188 C-30.66212007 35.38542099 -30.66608819 33.1634141 -30.66796875 30.94140625 C-30.68233978 29.91299118 -30.69671082 28.88457611 -30.71151733 27.82499695 C-30.66265391 20.03487944 -29.13739116 13.82572975 -24.05859375 7.77734375 C-23.32382812 7.15730469 -22.5890625 6.53726562 -21.83203125 5.8984375 C-21.10242187 5.26035156 -20.3728125 4.62226563 -19.62109375 3.96484375 C-13.46885898 -0.18642146 -7.15777897 0.01539959 0 0 Z M35.79296875 17.3359375 C35.46296875 18.9859375 35.13296875 20.6359375 34.79296875 22.3359375 C37.26796875 22.8309375 37.26796875 22.8309375 39.79296875 23.3359375 C40.12296875 21.6859375 40.45296875 20.0359375 40.79296875 18.3359375 C39.14296875 18.0059375 37.49296875 17.6759375 35.79296875 17.3359375 Z M-1.9921875 29.27734375 C-7.28559706 36.07242978 -7.95440248 41.81157284 -7.20703125 50.3359375 C-5.46034198 57.04455934 -1.02971227 60.88058881 4.79296875 64.3359375 C10.86840441 66.36108272 18.24532406 66.43640239 24.16796875 63.8359375 C29.31135212 60.8401046 32.9283532 55.92978415 34.79296875 50.3359375 C35.45403828 43.02082388 35.56136582 36.26671392 30.79296875 30.3359375 C24.45094554 24.5043387 19.43735301 22.95268873 10.8671875 23.06640625 C5.4002644 23.54571717 1.72727045 25.23233149 -1.9921875 29.27734375 Z " fill="#888888" transform="translate(36.20703125,5.6640625)"/>
<path d="M0 0 C4.8404001 2.60960701 8.06650639 6.09014417 9.796875 11.28125 C10.46163179 18.73524418 10.44121145 24.25616487 5.796875 30.28125 C0.39692227 35.28608423 -4.05234248 35.63143872 -11.1875 35.5625 C-16.73027207 35.04555753 -19.78938645 32.80659949 -23.578125 28.71875 C-27.13749657 23.37969265 -26.78151279 17.4828524 -26.203125 11.28125 C-24.60392 6.37933903 -21.45575292 3.11633528 -17.203125 0.28125 C-11.84906913 -1.50343529 -5.40672306 -1.76389547 0 0 Z " fill="#888888" transform="translate(58.203125,32.71875)"/>
</svg>
